<svg viewBox="0 0 40 40" xmlns="http://www.w3.org/2000/svg" xmlns:xlink="http://www.w3.org/1999/xlink" width="40.000000" height="40.000000" fill="none" customFrame="#000000">
	<defs>
		<clipPath id="clipPath_3">
			<rect width="40.000000" height="40.000000" x="0.000000" y="0.000000" fill="rgb(255,255,255)" />
		</clipPath>
	</defs>
	<g id="flag">
		<g id="Warstwa_1" clip-path="url(#clipPath_3)" customFrame="url(#clipPath_3)">
			<rect id="Warstwa_1" width="40.000000" height="40.000000" x="0.000000" y="0.000000" fill="rgb(255,255,255)" fill-opacity="0" />
			<g id="Group">
				<path id="Vector" d="M0.399902 6.82666L39.6004 6.82666L39.6004 33.1742L0.399902 33.1742L0.399902 6.82666Z" fill="rgb(214,212,209)" fill-rule="nonzero" />
				<g id="Group">
					<path id="Vector" d="M0.735352 7.15039L39.2929 7.15039L39.2929 32.855L0.735352 32.855L0.735352 7.15039Z" fill="rgb(7,157,56)" fill-rule="nonzero" />
					<path id="Vector" d="M36.0388 19.9267L20.0633 9.72599C20.0345 9.70722 19.9957 9.70722 19.9659 9.72599L3.99142 19.9267C3.96489 19.9433 3.94824 19.972 3.94824 20.003C3.94824 20.034 3.96489 20.0628 3.99142 20.0795L19.9659 30.2811C19.9804 30.29 19.9969 30.2944 20.0147 30.2944C20.0312 30.2944 20.0479 30.29 20.0634 30.2811L36.039 20.0795C36.0645 20.0628 36.08 20.034 36.08 20.003C36.08 19.972 36.0642 19.9432 36.0388 19.9267Z" fill="rgb(253,223,7)" fill-rule="nonzero" />
					<path id="Vector" d="M16.3423 18.1665C15.4724 18.1665 14.621 18.2428 13.7931 18.3879C13.6592 18.9037 13.5884 19.445 13.5884 20.003C13.5884 23.5528 16.4654 26.4288 20.0143 26.4288C22.8945 26.4288 25.3331 24.5337 26.149 21.9214C23.5484 19.5878 20.1116 18.1665 16.3423 18.1665Z" fill="rgb(7,47,104)" fill-rule="nonzero" />
					<g id="Group">
						<path id="Vector" d="M16.3425 18.1667C20.1051 18.1667 23.5364 19.5836 26.1348 21.9103C26.2368 21.5828 26.323 21.2473 26.3718 20.8998C23.6609 18.6228 20.1617 17.249 16.3429 17.249C15.5957 17.249 14.8597 17.3032 14.1401 17.4051C14.0007 17.7195 13.8933 18.0493 13.8047 18.387C14.6289 18.243 15.4769 18.1667 16.3425 18.1667Z" fill="rgb(255,255,255)" fill-rule="nonzero" />
					</g>
					<path id="Vector" d="M16.3423 17.2488C20.1635 17.2488 23.6638 18.6236 26.376 20.9029C26.4179 20.6084 26.4414 20.3084 26.4414 20.003C26.4414 16.4542 23.5632 13.5771 20.0145 13.5771C17.3909 13.5771 15.1351 15.1513 14.1377 17.405C14.8579 17.303 15.594 17.2488 16.3423 17.2488Z" fill="rgb(7,47,104)" fill-rule="nonzero" />
					<path id="Vector" d="M16.7077 17.8902L16.7133 17.7506L17.062 17.7629L17.0664 17.64L16.7177 17.6289L16.7211 17.5237L17.1395 17.5381L17.1439 17.4076L16.6037 17.3877L16.5815 18.0175L17.1484 18.0374L17.1528 17.9056L16.7077 17.8902Z" fill="rgb(12,156,53)" fill-rule="nonzero" />
					<path id="Vector" d="M17.6656 17.8479L17.587 17.4483L17.5847 17.4428L17.4176 17.4272L17.3634 18.046L17.3623 18.0549L17.4851 18.0648L17.5161 17.6995L17.5913 18.0748L17.7 18.0837L17.8394 17.7273L17.8084 18.0847L17.8072 18.0936L17.9279 18.1047L17.9822 17.4859L17.9833 17.4771L17.8161 17.4627L17.6656 17.8479Z" fill="rgb(12,156,53)" fill-rule="nonzero" />
					<path id="Vector" d="M18.7963 17.9506L19.0808 17.9993L19.1007 17.8787L18.8174 17.83L18.8306 17.7525L19.1683 17.8101L19.1893 17.6906L18.7388 17.6131L18.731 17.6108L18.6358 18.1622L18.6348 18.1709L19.0952 18.2506L19.1041 18.2518L19.1251 18.1311L18.7753 18.0713L18.7963 17.9506Z" fill="rgb(12,156,53)" fill-rule="nonzero" />
					<path id="Vector" d="M24.3964 20.1058C24.4574 20.1657 24.5106 20.2164 24.4851 20.2553C24.465 20.2863 24.4153 20.2808 24.3511 20.2409C24.307 20.2121 24.2772 20.1789 24.2706 20.1479C24.2675 20.1302 24.2706 20.1125 24.2803 20.0969L24.2847 20.0892L24.1539 20.0062L24.1496 20.0128C24.1231 20.0537 24.1153 20.0969 24.1252 20.1412C24.1429 20.2232 24.2168 20.2952 24.2803 20.3361C24.3311 20.3672 24.4067 20.4058 24.4783 20.4058C24.5414 20.4058 24.5913 20.377 24.6267 20.3206C24.7 20.2066 24.5913 20.1026 24.5051 20.0195C24.4496 19.9664 24.4022 19.9198 24.422 19.891C24.4354 19.871 24.4485 19.8611 24.4685 19.8611C24.4928 19.8611 24.5239 19.8778 24.5473 19.8933C24.5858 19.9176 24.6445 19.9685 24.6071 20.0272L24.6029 20.035L24.7293 20.1157L24.7345 20.1079C24.7633 20.0659 24.7724 20.0204 24.7622 19.9751C24.7477 19.9076 24.6901 19.85 24.6417 19.8191L24.6328 19.8134C24.5886 19.7846 24.5065 19.7314 24.4269 19.7314C24.3682 19.7314 24.3207 19.7591 24.2852 19.8134C24.2126 19.9243 24.3146 20.0251 24.3964 20.1058Z" fill="rgb(12,156,53)" fill-rule="nonzero" />
					<path id="Vector" d="M23.4038 19.8116L23.8906 20.0859L23.8986 20.0906L23.9629 19.9766L23.5753 19.7573L23.644 19.6356L23.9406 19.8027L23.9482 19.8071L24.0081 19.7008L23.7048 19.5292L23.7556 19.4374L24.1133 19.64L24.1211 19.6444L24.1853 19.5304L23.7216 19.2669L23.7137 19.2637L23.408 19.8039L23.4038 19.8116Z" fill="rgb(12,156,53)" fill-rule="nonzero" />
					<path id="Vector" d="M25.2615 20.7835C25.3401 20.6728 25.2369 20.5643 25.1551 20.4755C25.1032 20.4202 25.0579 20.3717 25.0776 20.3437C25.0922 20.325 25.1063 20.3161 25.1242 20.3161C25.1442 20.3161 25.1684 20.3272 25.2036 20.3528C25.2415 20.3793 25.2649 20.4091 25.2704 20.438C25.2726 20.4557 25.2678 20.4734 25.2557 20.489L25.2513 20.4967L25.3662 20.5786L25.3741 20.5842L25.3783 20.5776C25.4095 20.5355 25.4218 20.4912 25.414 20.4456C25.4029 20.3772 25.3486 20.3162 25.302 20.2831L25.2931 20.2764C25.2489 20.2443 25.1661 20.1846 25.082 20.1846C25.0274 20.1846 24.981 20.21 24.9444 20.2599C24.8679 20.3662 24.9646 20.4713 25.0415 20.5565C25.0991 20.6196 25.149 20.6728 25.1224 20.7104C25.1135 20.7225 25.1002 20.7293 25.0837 20.7293C25.0594 20.7293 25.0264 20.7147 24.9897 20.6895C24.9554 20.6638 24.931 20.6385 24.9201 20.613C24.909 20.5865 24.9112 20.563 24.9268 20.541L24.931 20.5343L24.8047 20.4445L24.7991 20.4511C24.7714 20.4898 24.7614 20.5331 24.7691 20.5784C24.7827 20.6604 24.8535 20.7356 24.9142 20.7799C24.9661 20.8165 25.0436 20.8608 25.1177 20.8608C25.1761 20.8609 25.2248 20.8343 25.2615 20.7835Z" fill="rgb(12,156,53)" fill-rule="nonzero" />
					<path id="Vector" d="M14.5337 18.1356C14.5447 18.1356 14.5548 18.1345 14.5659 18.1334C14.721 18.1146 14.8294 17.9585 14.8095 17.7858C14.7886 17.6265 14.6645 17.5068 14.5195 17.5068C14.5095 17.5068 14.4994 17.5068 14.4884 17.5091C14.4131 17.518 14.3455 17.5589 14.3002 17.6254C14.2538 17.6907 14.2349 17.7726 14.2447 17.8555C14.2648 18.015 14.3888 18.1356 14.5337 18.1356ZM14.3798 17.8212C14.3798 17.7748 14.3932 17.7305 14.4163 17.6983C14.4429 17.6618 14.4817 17.6441 14.5271 17.6441C14.629 17.6441 14.6732 17.736 14.6732 17.8212C14.6732 17.8678 14.661 17.9121 14.6366 17.9441C14.6101 17.9807 14.5713 17.9995 14.5271 17.9995C14.4254 17.9995 14.3798 17.9076 14.3798 17.8212Z" fill="rgb(12,156,53)" fill-rule="nonzero" />
					<path id="Vector" d="M26.0163 20.8853C25.9964 20.8078 25.9479 20.7458 25.8802 20.7117C25.8436 20.6917 25.8027 20.6816 25.7597 20.6816C25.6477 20.6816 25.5392 20.7526 25.4829 20.86C25.4451 20.934 25.4341 21.0183 25.4543 21.0958C25.475 21.1733 25.524 21.2352 25.5917 21.2706C25.6283 21.2894 25.6692 21.2994 25.7115 21.2994C25.8234 21.2994 25.9327 21.2297 25.9883 21.1211C26.0265 21.047 26.0362 20.9627 26.0163 20.8853ZM25.8881 21.0116C25.8615 21.0978 25.7852 21.162 25.7108 21.162C25.6843 21.162 25.659 21.1542 25.6356 21.1376C25.5802 21.0999 25.5618 21.0391 25.5835 20.9694C25.6101 20.8841 25.6859 20.8189 25.7597 20.8189C25.7862 20.8189 25.8117 20.8278 25.836 20.8445C25.8902 20.8808 25.9091 20.943 25.8881 21.0116Z" fill="rgb(12,156,53)" fill-rule="nonzero" />
					<path id="Vector" d="M16.3723 17.7227C16.3723 17.7171 16.3723 17.7115 16.3723 17.706C16.3735 17.6606 16.3735 17.5987 16.3248 17.5189C16.2551 17.4072 16.12 17.4015 16.1134 17.4004L15.7979 17.406L15.809 18.0271L15.8101 18.0348L15.819 18.0348C15.8434 18.0348 16.0636 18.0348 16.1257 18.0293C16.2009 18.0216 16.2751 17.9795 16.3217 17.9176C16.3735 17.85 16.3723 17.7703 16.3723 17.7227ZM16.1034 17.5335C16.1865 17.5346 16.223 17.5944 16.2428 17.6397C16.2496 17.6839 16.2496 17.7039 16.2507 17.7405L16.2518 17.7471C16.245 17.7969 16.2297 17.8301 16.1975 17.86C16.1355 17.9009 16.1056 17.9009 16.0668 17.9009C16.028 17.9009 15.9617 17.902 15.9385 17.902C15.9373 17.8534 15.9329 17.6132 15.9318 17.5346C16.0503 17.5335 16.0548 17.5335 16.1034 17.5335Z" fill="rgb(12,156,53)" fill-rule="nonzero" />
					<path id="Vector" d="M15.4925 17.7835C15.5103 17.768 15.5556 17.7193 15.5701 17.653C15.5877 17.5721 15.5369 17.5047 15.5146 17.4869L15.5114 17.4824C15.4892 17.4625 15.4483 17.4248 15.3885 17.4248L15.383 17.4248C15.3199 17.4281 15.011 17.4491 15.0078 17.4491L15 17.4502L15.0343 18.079L15.165 18.069L15.1494 17.8432L15.3797 17.8266C15.3907 17.8465 15.4373 17.9284 15.4428 17.9804C15.4461 18.0147 15.4461 18.0457 15.4461 18.0457L15.4461 18.0546L15.5733 18.0546L15.5733 18.0457C15.5733 18.0412 15.5766 17.9339 15.5446 17.8675C15.5213 17.8211 15.5025 17.7945 15.4925 17.7835ZM15.2822 17.5621C15.2944 17.561 15.3023 17.561 15.3033 17.561C15.3332 17.5598 15.3675 17.5566 15.3675 17.5566C15.3686 17.5566 15.3895 17.5577 15.4128 17.5776C15.4128 17.5776 15.4336 17.5932 15.4327 17.6219C15.4315 17.6517 15.415 17.6773 15.4073 17.6816C15.3895 17.696 15.3387 17.6993 15.3209 17.7004L15.1405 17.7125L15.1307 17.5731C15.1626 17.5721 15.2424 17.5654 15.2822 17.5621Z" fill="rgb(12,156,53)" fill-rule="nonzero" />
					<path id="Vector" d="M21.5871 18.9692C21.6048 18.9724 21.6225 18.9748 21.6403 18.9748C21.7764 18.9748 21.8982 18.8674 21.9291 18.719C21.9647 18.5497 21.8694 18.3847 21.7166 18.3527C21.699 18.3494 21.6812 18.3481 21.6636 18.3481C21.5262 18.3481 21.4045 18.4544 21.3733 18.6029C21.3569 18.6847 21.369 18.7688 21.4088 18.8375C21.4496 18.9072 21.5128 18.9537 21.5871 18.9692ZM21.5028 18.6515C21.5162 18.5708 21.5761 18.4856 21.6636 18.4856C21.6779 18.4856 21.6935 18.4878 21.7087 18.4933C21.793 18.5221 21.8116 18.6041 21.8007 18.6716C21.787 18.7512 21.7252 18.8375 21.6398 18.8375C21.6246 18.8375 21.6099 18.8353 21.5934 18.8298C21.5096 18.801 21.4907 18.719 21.5028 18.6515Z" fill="rgb(12,156,53)" fill-rule="nonzero" />
					<path id="Vector" d="M21.0307 18.5021C21.0529 18.4921 21.1114 18.4611 21.1457 18.4037C21.1899 18.3317 21.1635 18.252 21.1502 18.2275L21.1469 18.2232C21.1323 18.1978 21.1048 18.1457 21.044 18.1268C20.9841 18.1091 20.6854 18.0283 20.6823 18.0272L20.6734 18.0249L20.5042 18.6217L20.501 18.6306L20.6283 18.6649L20.687 18.4446L20.9105 18.5055C20.9149 18.5277 20.9314 18.6196 20.9194 18.6705C20.9105 18.7048 20.9017 18.7336 20.9017 18.7336L20.8974 18.7425L21.0179 18.7845L21.0221 18.7756C21.0234 18.7712 21.0609 18.6716 21.052 18.5985C21.045 18.5453 21.0362 18.5154 21.0307 18.5021ZM20.7572 18.1834C20.7905 18.1933 20.8758 18.2155 20.9099 18.2254C20.9188 18.2266 20.9235 18.2288 20.9246 18.2288C20.9534 18.2377 20.9865 18.2453 20.9865 18.2453C20.9865 18.2453 21.0074 18.2542 21.0218 18.2796C21.0218 18.2796 21.0372 18.3018 21.0262 18.3294C21.0165 18.3571 20.9921 18.3749 20.982 18.377C20.9777 18.3781 20.9723 18.3792 20.9644 18.3792C20.9345 18.3792 20.8968 18.366 20.896 18.366L20.7224 18.3184C20.7275 18.2951 20.7464 18.2254 20.7572 18.1834Z" fill="rgb(12,156,53)" fill-rule="nonzero" />
					<path id="Vector" d="M23.1392 19.5704C23.1258 19.6035 23.1115 19.6301 23.1115 19.6301L23.1071 19.6378L23.2202 19.6975L23.2245 19.6909C23.2271 19.6865 23.2789 19.5924 23.2809 19.5193C23.284 19.4672 23.2785 19.4352 23.2753 19.4208C23.2986 19.4142 23.3617 19.3931 23.4049 19.3422C23.457 19.278 23.4436 19.195 23.4348 19.1685L23.4325 19.163C23.4215 19.1342 23.4025 19.08 23.3462 19.0522C23.2888 19.0257 23.0053 18.9005 23.0029 18.8994L22.9951 18.895L22.736 19.4595L22.7329 19.4672L22.8526 19.5203L22.9443 19.3121L23.1558 19.4063C23.1558 19.4286 23.1592 19.5227 23.1392 19.5704ZM23.189 19.1253C23.2023 19.131 23.211 19.1342 23.2121 19.1353C23.2387 19.1475 23.2708 19.1607 23.2708 19.1607C23.2708 19.1619 23.2899 19.1729 23.3009 19.2007C23.3009 19.2007 23.3119 19.2249 23.2978 19.2505C23.2841 19.2759 23.258 19.2891 23.2478 19.2903C23.2447 19.2903 23.2423 19.2914 23.2399 19.2914C23.21 19.2914 23.1636 19.2671 23.1625 19.2671L22.9964 19.1929L23.0539 19.0656C23.0815 19.0789 23.1503 19.1088 23.189 19.1253Z" fill="rgb(12,156,53)" fill-rule="nonzero" />
					<path id="Vector" d="M20.3874 17.9951C20.3719 17.9685 20.3432 17.9186 20.2834 17.9021C20.2216 17.8854 19.9203 17.8113 19.918 17.8102L19.9092 17.8091L19.752 18.4178L19.8792 18.4487L19.9336 18.2285L20.1626 18.2838C20.164 18.2838 20.186 18.2893 20.2135 18.2893C20.2344 18.2893 20.2545 18.286 20.27 18.2804C20.2732 18.2793 20.3507 18.2461 20.3905 18.1753C20.4327 18.1033 20.4038 18.0236 20.3894 17.9993L20.3874 17.9951ZM19.9965 17.9652C20.0297 17.974 20.1107 17.9939 20.1482 18.0028C20.1581 18.0051 20.1636 18.0061 20.1647 18.0061C20.1946 18.0138 20.2267 18.0216 20.2267 18.0216C20.2278 18.0227 20.2474 18.0294 20.2643 18.0559C20.2667 18.0593 20.2789 18.0803 20.27 18.1046C20.2611 18.1322 20.2367 18.1511 20.2267 18.1533C20.2212 18.1555 20.2145 18.1555 20.2058 18.1555C20.177 18.1555 20.1404 18.1444 20.1393 18.1444L19.9643 18.1012C19.969 18.0769 19.9866 18.0072 19.9965 17.9652Z" fill="rgb(12,156,53)" fill-rule="nonzero" />
					<path id="Vector" d="M22.4256 19.2481L22.399 19.3068L22.3961 19.3146L22.4924 19.3566L22.5799 19.1551L22.6053 19.1663L22.6475 19.0699L22.6266 19.061L22.6279 19.0588L22.619 19.0544C22.608 19.05 22.5959 19.0445 22.5849 19.04L22.5583 19.0279C22.5449 19.0212 22.5307 19.0167 22.5162 19.0123L22.4191 18.9703L22.378 19.0667L22.4335 19.0909C22.4048 19.1131 22.3717 19.1263 22.3395 19.1263C22.312 19.1263 22.2863 19.1175 22.2631 19.1009C22.2088 19.0644 22.1898 19.0036 22.2112 18.9337C22.2377 18.8474 22.3141 18.7832 22.3872 18.7832C22.4137 18.7832 22.4404 18.7909 22.4635 18.8076C22.5001 18.833 22.52 18.8684 22.5234 18.9104L22.5245 18.9159L22.5289 18.9182C22.541 18.9237 22.5545 18.9282 22.5667 18.9315C22.5812 18.9358 22.5953 18.9404 22.6086 18.9459L22.6529 18.9669L22.6529 18.9548C22.6628 18.8352 22.6052 18.7256 22.508 18.6748C22.4713 18.656 22.4316 18.646 22.3883 18.646C22.2765 18.646 22.167 18.7157 22.1116 18.8242C22.032 18.978 22.0804 19.1619 22.219 19.2337C22.2566 19.2536 22.2966 19.2625 22.3385 19.2625C22.3678 19.2625 22.3965 19.258 22.4256 19.2481Z" fill="rgb(12,156,53)" fill-rule="nonzero" />
					<g id="Group">
						<path id="Vector" d="M21.8763 17.8399L22.028 17.7292L22.1819 17.8399L22.1232 17.6606L22.275 17.5498L22.0868 17.5498L22.028 17.3706L21.9705 17.5498L21.7822 17.5498L21.9341 17.6606L21.8763 17.8399Z" fill="rgb(255,255,255)" fill-rule="nonzero" />
						<path id="Vector" d="M14.9342 18.7557L14.7139 18.7557L14.6463 18.5454L14.5777 18.7557L14.3574 18.7557L14.5356 18.8852L14.4669 19.0945L14.6463 18.9649L14.8234 19.0945L14.7558 18.8852L14.9342 18.7557Z" fill="rgb(255,255,255)" fill-rule="nonzero" />
						<path id="Vector" d="M21.8231 19.8592L21.7745 19.7075L21.7257 19.8592L21.5664 19.8592L21.6948 19.9522L21.6461 20.1038L21.7745 20.0109L21.9028 20.1038L21.8541 19.9522L21.9825 19.8592L21.8231 19.8592Z" fill="rgb(255,255,255)" fill-rule="nonzero" />
						<path id="Vector" d="M15.9926 20.8763L15.9615 20.7778L15.9284 20.8763L15.8232 20.8763L15.9085 20.9373L15.8764 21.0379L15.9615 20.9771L16.0458 21.0379L16.0136 20.9383L16.0988 20.8763L15.9926 20.8763Z" fill="rgb(255,255,255)" fill-rule="nonzero" />
						<path id="Vector" d="M15.2832 21.4561L15.2223 21.2725L15.2135 21.2746L15.2046 21.2725L15.1459 21.4561L14.9258 21.4561L15.1039 21.5867L15.0364 21.796L15.2145 21.6666L15.3927 21.796L15.3241 21.5867L15.5024 21.4561L15.2832 21.4561Z" fill="rgb(255,255,255)" fill-rule="nonzero" />
						<path id="Vector" d="M14.6079 22.0476L14.5492 21.8706L14.4917 22.0476L14.3057 22.0476L14.4562 22.1583L14.3987 22.3366L14.5492 22.2258L14.7009 22.3366L14.6433 22.1583L14.795 22.0476L14.6079 22.0476Z" fill="rgb(255,255,255)" fill-rule="nonzero" />
						<path id="Vector" d="M17.5048 20.4268L17.4472 20.252L17.3917 20.4268L17.207 20.4268L17.3563 20.5342L17.2989 20.7092L17.4472 20.6019L17.5954 20.7092L17.5391 20.5342L17.6885 20.4268L17.5048 20.4268Z" fill="rgb(255,255,255)" fill-rule="nonzero" />
						<path id="Vector" d="M16.7421 22.2234L16.689 22.0605L16.6368 22.2234L16.4653 22.2234L16.6036 22.3241L16.5506 22.4869L16.689 22.386L16.8273 22.4869L16.7752 22.3241L16.9135 22.2234L16.7421 22.2234Z" fill="rgb(255,255,255)" fill-rule="nonzero" />
						<path id="Vector" d="M16.542 23.0184L16.4922 22.8667L16.4445 23.0184L16.2852 23.0184L16.4137 23.1114L16.3638 23.2631L16.4922 23.169L16.6217 23.2631L16.5719 23.1114L16.7003 23.0184L16.542 23.0184Z" fill="rgb(255,255,255)" fill-rule="nonzero" />
						<path id="Vector" d="M17.5082 23.5297L17.4407 23.3203L17.3731 23.5297L17.1528 23.5297L17.3301 23.6593L17.2625 23.8695L17.4407 23.74L17.6188 23.8695L17.5513 23.6593L17.7296 23.5297L17.5082 23.5297Z" fill="rgb(255,255,255)" fill-rule="nonzero" />
						<path id="Vector" d="M20.0144 20.5542L19.9557 20.7334L19.7676 20.7334L19.9203 20.8442L19.8627 21.0237L20.0144 20.9129L20.1671 21.0237L20.1086 20.8442L20.2613 20.7334L20.072 20.7334L20.0144 20.5542Z" fill="rgb(255,255,255)" fill-rule="nonzero" />
						<path id="Vector" d="M19.5725 21.3128L19.4142 21.3128L19.3645 21.1611L19.3157 21.3128L19.1562 21.3128L19.2858 21.4058L19.236 21.5572L19.3645 21.4633L19.4939 21.5563L19.4441 21.4058L19.5725 21.3128Z" fill="rgb(255,255,255)" fill-rule="nonzero" />
						<path id="Vector" d="M19.6866 21.9766L19.7707 22.0385L19.7387 21.9389L19.8228 21.877L19.7187 21.877L19.6866 21.7783L19.6544 21.877L19.5493 21.877L19.6347 21.9389L19.6014 22.0385L19.6866 21.9766Z" fill="rgb(255,255,255)" fill-rule="nonzero" />
						<path id="Vector" d="M20.8143 21.4178L20.7567 21.2383L20.6993 21.4178L20.5098 21.4178L20.6627 21.5284L20.604 21.7078L20.7567 21.597L20.9094 21.7078L20.851 21.5284L21.0037 21.4178L20.8143 21.4178Z" fill="rgb(255,255,255)" fill-rule="nonzero" />
						<path id="Vector" d="M19.8924 22.6143L19.8248 22.8235L19.6035 22.8235L19.7817 22.9531L19.713 23.1635L19.8924 23.0327L20.0706 23.1635L20.002 22.9531L20.1802 22.8235L19.9598 22.8235L19.8924 22.6143Z" fill="rgb(255,255,255)" fill-rule="nonzero" />
						<path id="Vector" d="M20.0366 25.2389L20.0102 25.1582L19.9846 25.2389L19.8994 25.2389L19.968 25.2887L19.9426 25.3696L20.0102 25.3196L20.0798 25.3696L20.0532 25.2887L20.1208 25.2389L20.0366 25.2389Z" fill="rgb(255,255,255)" fill-rule="nonzero" />
						<path id="Vector" d="M21.3558 23.5433L21.306 23.3916L21.2584 23.5433L21.0991 23.5433L21.2275 23.6362L21.1776 23.788L21.306 23.6937L21.4345 23.788L21.3856 23.6362L21.514 23.5433L21.3558 23.5433Z" fill="rgb(255,255,255)" fill-rule="nonzero" />
						<path id="Vector" d="M21.8721 24.2481L21.8134 24.0688L21.7547 24.2481L21.5664 24.2481L21.718 24.3588L21.6593 24.5381L21.8134 24.4274L21.9649 24.5381L21.9073 24.3588L22.0589 24.2481L21.8721 24.2481Z" fill="rgb(255,255,255)" fill-rule="nonzero" />
						<path id="Vector" d="M22.5402 23.5662L22.4917 23.4146L22.443 23.5662L22.2837 23.5662L22.412 23.6594L22.3633 23.8109L22.4917 23.7181L22.6201 23.8109L22.5714 23.6594L22.6997 23.5662L22.5402 23.5662Z" fill="rgb(255,255,255)" fill-rule="nonzero" />
						<path id="Vector" d="M23.2554 23.5971L23.2056 23.4468L23.1559 23.5971L22.9976 23.5971L23.1258 23.6912L23.0771 23.8429L23.2056 23.7489L23.334 23.8429L23.2854 23.6912L23.4136 23.5971L23.2554 23.5971Z" fill="rgb(255,255,255)" fill-rule="nonzero" />
						<path id="Vector" d="M23.222 24.0269L23.1645 24.2064L22.9751 24.2064L23.1279 24.3168L23.0692 24.4962L23.222 24.3854L23.3749 24.4962L23.3162 24.3168L23.469 24.2064L23.2796 24.2064L23.222 24.0269Z" fill="rgb(255,255,255)" fill-rule="nonzero" />
						<path id="Vector" d="M23.2866 24.8769L23.2378 24.7251L23.1891 24.8769L23.0298 24.8769L23.1581 24.9698L23.1094 25.1213L23.2378 25.0274L23.3662 25.1213L23.3164 24.9698L23.4458 24.8769L23.2866 24.8769Z" fill="rgb(255,255,255)" fill-rule="nonzero" />
						<path id="Vector" d="M23.9264 23.7124L23.8776 23.5615L23.8289 23.7124L23.6694 23.7124L23.798 23.8064L23.749 23.9568L23.8776 23.8639L24.006 23.9568L23.9572 23.8064L24.0857 23.7124L23.9264 23.7124Z" fill="rgb(255,255,255)" fill-rule="nonzero" />
						<path id="Vector" d="M24.4499 23.3804L24.3912 23.2012L24.3336 23.3804L24.1753 23.3793L24.1753 23.3838L24.1665 23.3959L24.2982 23.491L24.2395 23.6705L24.3912 23.5597L24.544 23.6705L24.4853 23.491L24.6391 23.3804L24.4499 23.3804Z" fill="rgb(255,255,255)" fill-rule="nonzero" />
						<path id="Vector" d="M24.7147 22.7559L24.656 22.5767L24.5973 22.7559L24.4092 22.7559L24.5619 22.8666L24.5032 23.046L24.656 22.9354L24.8075 23.046L24.7501 22.8666L24.9015 22.7559L24.7147 22.7559Z" fill="rgb(255,255,255)" fill-rule="nonzero" />
						<path id="Vector" d="M24.2716 22.3708L24.4489 22.5004L24.3813 22.29L24.5595 22.1606L24.3394 22.1606L24.2716 21.9512L24.2032 22.1606L23.9829 22.1606L24.1609 22.29L24.0924 22.5004L24.2716 22.3708Z" fill="rgb(255,255,255)" fill-rule="nonzero" />
						<path id="Vector" d="M25.3433 22.2581L25.2934 22.1064L25.2448 22.2581L25.0854 22.2581L25.2137 22.351L25.165 22.5017L25.2934 22.4086L25.4219 22.5017L25.3732 22.351L25.5015 22.2581L25.3433 22.2581Z" fill="rgb(255,255,255)" fill-rule="nonzero" />
					</g>
				</g>
			</g>
		</g>
	</g>
</svg>
