<svg viewBox="0 0 30 28" xmlns="http://www.w3.org/2000/svg" xmlns:xlink="http://www.w3.org/1999/xlink" width="30.000000" height="28.000000" fill="none">
	<rect id="fa-brands:youtube" width="30.000000" height="28.000000" x="0.000000" y="0.000000" fill="rgb(255,255,255)" fill-opacity="0" />
	<path id="Vector" d="M28.6274 6.78579C28.3003 5.49243 27.3365 4.47382 26.1127 4.12814C23.8944 3.5 14.9996 3.5 14.9996 3.5C14.9996 3.5 6.10479 3.5 3.88651 4.12814C2.66271 4.47388 1.69885 5.49243 1.37172 6.78579C0.777344 9.13008 0.777344 14.0212 0.777344 14.0212C0.777344 14.0212 0.777344 18.9124 1.37172 21.2566C1.69885 22.55 2.66271 23.5262 3.88651 23.8719C6.10479 24.5 14.9996 24.5 14.9996 24.5C14.9996 24.5 23.8944 24.5 26.1127 23.8719C27.3365 23.5262 28.3003 22.55 28.6274 21.2566C29.2218 18.9124 29.2218 14.0212 29.2218 14.0212C29.2218 14.0212 29.2218 9.13008 28.6274 6.78579ZM12.0905 18.462L12.0905 9.58043L19.5248 14.0213L12.0905 18.462Z" fill="rgb(78,78,78)" fill-rule="nonzero" />
</svg>
