<svg viewBox="0 0 40 40" xmlns="http://www.w3.org/2000/svg" xmlns:xlink="http://www.w3.org/1999/xlink" width="40.000000" height="40.000000" fill="none">
	<rect id="Icons" width="40.000000" height="40.000000" x="0.000000" y="0.000000" fill="rgb(255,255,255)" fill-opacity="0" />
	<path id="Vector" d="M23.75 2.5L6.25 2.5C4.125 2.5 2.5 4.125 2.5 6.25L2.5 27.5C2.5 28 2.75 28.375 3.125 28.625C3.375 28.75 3.5 28.75 3.75 28.75C4 28.75 4.25 28.625 4.375 28.5L13.75 22.5L23.75 22.5C25.875 22.5 27.5 20.875 27.5 18.75L27.5 6.25C27.5 4.125 25.875 2.5 23.75 2.5ZM12.5 16.25L10 16.25C9.25 16.25 8.75 15.75 8.75 15C8.75 14.25 9.25 13.75 10 13.75L12.5 13.75C13.25 13.75 13.75 14.25 13.75 15C13.75 15.75 13.25 16.25 12.5 16.25ZM16.25 11.25L10 11.25C9.25 11.25 8.75 10.75 8.75 10C8.75 9.25 9.25 8.75 10 8.75L16.25 8.75C17 8.75 17.5 9.25 17.5 10C17.5 10.75 17 11.25 16.25 11.25Z" fill="rgb(158.312,158.312,158.312)" fill-rule="nonzero" />
	<path id="Vector" d="M33.75 11.25L30 11.25L30 18.75C30 22.25 27.25 25 23.75 25L14.5 25L12.5 26.25L12.5 27.5C12.5 29.625 14.125 31.25 16.25 31.25L26.25 31.25L35.625 37.25C35.875 37.375 36.125 37.5 36.25 37.5C36.5 37.5 36.625 37.5 36.875 37.375C37.25 37.125 37.5 36.75 37.5 36.25L37.5 15C37.5 12.875 35.875 11.25 33.75 11.25Z" fill="rgb(158.312,158.312,158.312)" fill-rule="nonzero" />
</svg>
