<svg viewBox="0 0 40 40" xmlns="http://www.w3.org/2000/svg" xmlns:xlink="http://www.w3.org/1999/xlink" width="40.000000" height="40.000000" fill="none">
	<rect id="Layer_1" width="40.000000" height="40.000000" x="0.000000" y="0.000000" fill="rgb(255,255,255)" fill-opacity="0" />
	<path id="Vector" d="M4.73462 18.9245C5.0254 19.4253 5.02095 20.0472 4.73111 20.5474C4.49884 20.9483 4.59329 21.4468 4.95759 21.7335C5.47915 22.1438 6.05525 22.4749 6.67212 22.7199C7.10243 22.8907 7.58032 22.7245 7.81142 22.3231C8.434 21.2415 10.0013 21.246 10.6179 22.3249C10.849 22.7293 11.3312 22.8911 11.7599 22.7201C12.3651 22.4788 12.9561 22.1381 13.467 21.734C13.8306 21.4463 13.9309 20.9492 13.6977 20.5465C13.0709 19.4638 13.8531 18.1149 15.1021 18.1149C15.5656 18.1149 15.944 17.7845 16.0111 17.3267C16.1071 16.6713 16.1088 16.0062 16.0146 15.3507C15.9484 14.8903 15.5656 14.561 15.0984 14.561C13.853 14.561 13.0702 13.2125 13.6977 12.1294C13.9302 11.7282 13.8356 11.2294 13.4711 10.9424C12.9499 10.5318 12.3738 10.2006 11.7569 9.95611C11.3269 9.78572 10.8486 9.95377 10.617 10.3535C9.99017 11.4354 8.43118 11.4306 7.81134 10.3517C7.57931 9.94799 7.10079 9.78385 6.66876 9.95596C6.06556 10.1962 5.47142 10.5409 4.96134 10.9424C4.59587 11.2301 4.49751 11.7263 4.73111 12.1294C5.35798 13.2113 4.57868 14.561 3.32673 14.561C2.86345 14.561 2.48126 14.8908 2.41407 15.3493C2.31806 16.0046 2.31993 16.6707 2.41415 17.326C2.4804 17.7864 2.86329 18.1149 3.33032 18.1149C3.90915 18.1149 4.44415 18.4243 4.73462 18.9245ZM7.05587 15.7606C7.56368 13.8492 10.1539 13.4963 11.1477 15.2216C11.763 16.2898 11.4061 17.6515 10.3308 18.2724C8.61376 19.2638 6.54642 17.6783 7.05587 15.7606ZM11.0621 36.9438C11.1148 37.0042 11.0489 37.0964 10.9745 37.0689C9.53103 36.5341 8.17525 35.8184 7.11775 34.6747C5.67204 33.1113 5.14532 31.1209 5.12431 29.029L5.12134 28.7335L3.91892 28.6786C3.84345 28.6752 3.82298 28.5863 3.8647 28.545L6.53353 25.9047C6.56376 25.8745 6.61712 25.8761 6.64689 25.9115L9.06118 28.7818C9.10634 28.8355 9.06462 28.9135 8.99306 28.9106L7.78267 28.8553L7.76306 29.1614C7.55579 32.3949 9.04243 34.6261 11.0621 36.9438ZM4.37001 7.9783C5.16337 6.65908 6.11861 5.46017 7.439 4.63369C9.24072 3.50596 11.3052 3.35674 13.3607 3.72416L13.6519 3.77619L13.9295 2.59955C13.9418 2.54517 14.027 2.51939 14.0674 2.57947L16.1635 5.68885C16.1764 5.70791 16.1797 5.73158 16.1761 5.754C16.17 5.77385 16.156 5.7908 16.1379 5.80096L12.8676 7.63846C12.8068 7.6726 12.7395 7.61432 12.7541 7.55228L13.033 6.37135L12.7363 6.29502C9.63423 5.49752 7.10946 6.52533 4.47478 8.08572C4.40782 8.12557 4.32892 8.04666 4.37001 7.9783ZM37.6572 28.5562C37.6621 28.6231 37.5823 28.6646 37.5298 28.623L36.5851 27.876L36.3892 28.0965C34.7931 29.8919 32.841 31.0869 30.3893 31.0869C29.1127 31.0869 27.8854 30.767 26.6992 30.3181C26.6241 30.2897 26.6298 30.1794 26.7156 30.1675C29.7593 29.7447 32.3454 29.0368 34.3103 26.4617L34.4962 26.2181L33.5434 25.4609C33.492 25.4206 33.5168 25.3358 33.5836 25.3253L37.2892 24.7449C37.3349 24.7377 37.3737 24.7731 37.3796 24.8215L37.6572 28.5562ZM23.6913 29.2291C22.4349 29.2291 21.6606 27.8713 22.2832 26.7967C22.5156 26.3958 22.4199 25.8974 22.0563 25.6102C21.5375 25.2005 20.9597 24.8687 20.3456 24.6241C19.9162 24.4531 19.437 24.6203 19.2066 25.0208C18.5831 26.1042 17.0164 26.0981 16.3968 25.0199C16.1665 24.619 15.6877 24.4521 15.2584 24.6238C14.6502 24.8672 14.0652 25.2057 13.5502 25.6106C13.1849 25.8978 13.0868 26.3946 13.3202 26.7974C13.9442 27.8742 13.1725 29.229 11.9158 29.229C11.4526 29.229 11.0703 29.5587 11.0032 30.0172C10.9072 30.6728 10.909 31.3383 11.0033 31.9938C11.0697 32.4552 11.4487 32.783 11.9195 32.783C13.1643 32.783 13.9432 34.1403 13.3202 35.2153C13.0877 35.6165 13.1833 36.1145 13.547 36.4017C14.067 36.8121 14.6456 37.1434 15.2612 37.3878C15.6916 37.5587 16.1694 37.3924 16.4005 36.991C17.0214 35.9122 18.5826 35.9091 19.2064 36.9917C19.4398 37.3967 19.9201 37.5591 20.3489 37.388C20.9563 37.1455 21.5427 36.8054 22.0568 36.4013C22.4213 36.1148 22.5154 35.6153 22.2831 35.2146C21.659 34.1375 22.44 32.783 23.6875 32.783C24.1506 32.783 24.533 32.4528 24.6002 31.9946C24.6962 31.3397 24.6999 30.6739 24.6038 30.0188C24.5366 29.5602 24.1552 29.2291 23.6913 29.2291ZM18.9198 32.9404C17.2024 33.9296 15.1334 32.3547 15.6451 30.4285C15.9619 29.2361 17.189 28.5306 18.3798 28.8483C18.9566 29.0021 19.4382 29.3724 19.7367 29.8892C20.352 30.9545 19.9864 32.326 18.9198 32.9404ZM29.1805 25.8407C29.1761 23.7868 31.4075 22.5071 33.1761 23.5322C33.8013 23.8946 34.5798 23.7449 35.0276 23.1783C35.6875 22.3431 36.2231 21.4174 36.6177 20.4288C36.8859 19.7569 36.6262 19.0076 35.9987 18.6469C34.2188 17.6239 34.2188 15.0521 35.9987 14.0292C36.6265 13.6683 36.8859 12.9195 36.6177 12.2471C36.2233 11.2585 35.6877 10.3331 35.0276 9.49775C34.5796 8.9308 33.8013 8.78236 33.1758 9.144C31.402 10.1697 29.1762 8.88525 29.1805 6.83525C29.182 6.1101 28.662 5.51127 27.9449 5.40775C26.8997 5.25682 25.8163 5.25682 24.7712 5.40775C24.054 5.51135 23.534 6.1101 23.5356 6.83525C23.5399 8.88268 21.3142 10.1715 19.5401 9.14385C18.915 8.78174 18.1363 8.93111 17.6884 9.49775C17.0282 10.3332 16.4944 11.2596 16.0981 12.2476C15.8284 12.9202 16.0895 13.6681 16.7174 14.0291C18.4926 15.0494 18.4927 17.6264 16.7174 18.6468C16.0898 19.0075 15.8284 19.756 16.0981 20.4282C16.4945 21.4162 17.0282 22.3427 17.6884 23.1781C18.1363 23.7449 18.9148 23.8945 19.5399 23.5321C21.3134 22.5039 23.5399 23.7931 23.5356 25.8406C23.534 26.5657 24.0539 27.1646 24.7711 27.2681C25.8189 27.4191 26.8971 27.4191 27.9449 27.2681C28.6621 27.1648 29.182 26.5659 29.1805 25.8407ZM22.702 16.3385C22.702 14.3225 24.3424 12.6837 26.358 12.6837C28.3742 12.6837 30.0103 14.3229 30.0103 16.3385C30.0103 18.3586 28.3784 19.9924 26.358 19.9924C24.3428 19.9924 22.702 18.354 22.702 16.3385Z" fill="rgb(158.312,158.312,158.312)" fill-rule="nonzero" />
</svg>
