<svg viewBox="0 0 22.0007 22.0001" xmlns="http://www.w3.org/2000/svg" xmlns:xlink="http://www.w3.org/1999/xlink" width="22.000710" height="22.000141" fill="none" customFrame="#000000">
	<defs>
		<linearGradient id="paint_linear_0" x1="-2.28881836e-05" x2="22.0003185" y1="11.0000677" y2="11.0000677" gradientUnits="userSpaceOnUse">
			<stop stop-color="rgb(255,50,63)" offset="0" stop-opacity="1" />
			<stop stop-color="rgb(255,55,228)" offset="1" stop-opacity="1" />
		</linearGradient>
		<linearGradient id="paint_linear_1" x1="0.000282287598" x2="22.0006256" y1="11.0000677" y2="11.0000677" gradientUnits="userSpaceOnUse">
			<stop stop-color="rgb(255,50,63)" offset="0" stop-opacity="1" />
			<stop stop-color="rgb(255,55,228)" offset="1" stop-opacity="1" />
		</linearGradient>
	</defs>
	<g id="Group">
		<g id="02 User">
			<path id="Vector" d="M1.0744 22.0001C0.861907 22.0002 0.654179 21.9372 0.477488 21.8192C0.300797 21.7011 0.16308 21.5333 0.0817588 21.337C0.000437275 21.1407 -0.0208362 20.9247 0.0206294 20.7163C0.0620949 20.5079 0.164437 20.3165 0.314709 20.1662L20.1663 0.314671C20.3678 0.113189 20.641 -1.90735e-06 20.926 -1.90735e-06C21.2109 -1.90735e-06 21.4842 0.113189 21.6856 0.314671C21.8871 0.516153 22.0003 0.78942 22.0003 1.07436C22.0003 1.3593 21.8871 1.63256 21.6856 1.83405L1.83408 21.6856C1.73441 21.7855 1.61599 21.8647 1.48562 21.9187C1.35525 21.9726 1.2155 22.0003 1.0744 22.0001Z" fill="url(#paint_linear_0)" fill-rule="nonzero" />
			<path id="Vector" d="M20.9262 22.0001C20.7851 22.0003 20.6454 21.9726 20.515 21.9187C20.3846 21.8647 20.2662 21.7855 20.1665 21.6856L0.314955 1.83405C0.113474 1.63256 0.000282288 1.3593 0.000282288 1.07436C0.000282288 0.78942 0.113474 0.516153 0.314955 0.314671C0.516437 0.113189 0.789705 -1.90735e-06 1.07464 -1.90735e-06C1.35958 -1.90735e-06 1.63285 0.113189 1.83433 0.314671L21.6859 20.1662C21.8362 20.3165 21.9385 20.5079 21.98 20.7163C22.0214 20.9247 22.0002 21.1407 21.9188 21.337C21.8375 21.5333 21.6998 21.7011 21.5231 21.8192C21.3464 21.9372 21.1387 22.0002 20.9262 22.0001Z" fill="url(#paint_linear_1)" fill-rule="nonzero" />
		</g>
	</g>
</svg>
