<svg viewBox="0 0 69.8516 70.1787" xmlns="http://www.w3.org/2000/svg" xmlns:xlink="http://www.w3.org/1999/xlink" width="69.851562" height="70.178711" fill="none">
	<defs>
		<linearGradient id="paint_linear_0" x1="0" x2="69.8506851" y1="35.479538" y2="35.479538" gradientUnits="userSpaceOnUse">
			<stop stop-color="rgb(255,50,63)" offset="0" stop-opacity="1" />
			<stop stop-color="rgb(255,55,228)" offset="1" stop-opacity="1" />
		</linearGradient>
	</defs>
	<rect id="Layer_1" width="69.851608" height="70.178535" x="0.000000" y="0.000000" fill="rgb(255,255,255)" fill-opacity="0" />
	<path id="Vector" d="M65.5431 48.4359C58.6293 42.0061 47.1866 31.1392 43.945 28.1855C40.9794 25.4827 39.9882 20.2781 43.0368 19.181C51.6404 16.0853 53.1508 24.1685 60.5701 21.4982C74.4557 16.501 67.1171 -3.83398 54.6918 0.637738C44.9955 4.12711 48.8765 13.7343 41.4828 16.3951C35.4394 18.5702 31.8337 16.7314 29.3451 14.7667C29.1963 14.6489 29.0512 14.5312 28.9103 14.4135C28.9103 14.4135 18.0354 4.51784 18.0354 4.5171C6.97609 -5.23135 -7.26769 9.61135 4.29582 20.6151C11.1374 27.1259 25.1302 39.8199 28.3711 42.7736C31.3367 45.4763 32.3279 50.681 29.2793 51.7781C20.6757 54.8738 19.1653 46.7906 11.746 49.4609C-2.13956 54.458 5.19902 74.7931 17.6243 70.3213C27.3206 66.832 23.4396 57.2248 30.8333 54.564C38.2276 51.9032 41.9734 55.2498 44.4878 57.4853C44.5779 57.5655 53.0642 65.6296 53.1551 65.7054C62.3251 73.3199 77.2689 59.3411 65.5424 48.4352L65.5431 48.4359Z" fill="url(#paint_linear_0)" fill-rule="nonzero" />
</svg>
