<svg viewBox="0 0 100 100" xmlns="http://www.w3.org/2000/svg" xmlns:xlink="http://www.w3.org/1999/xlink" width="100.000000" height="100.000000" fill="none" customFrame="#000000">
	<defs>
		<clipPath id="clipPath_0">
			<rect width="100.000000" height="100.000000" x="0.000000" y="0.000000" fill="rgb(255,255,255)" />
		</clipPath>
	</defs>
	<g id="icon-code">
		<g id="Icons" clip-path="url(#clipPath_0)" customFrame="url(#clipPath_0)">
			<rect id="Icons" width="100.000000" height="100.000000" x="0.000000" y="0.000000" fill="rgb(255,255,255)" fill-opacity="0" />
			<path id="Vector" d="M85 15.0002L85 51.6668L15 51.6668L15 15.0002L16.6667 13.3335L83.3333 13.3335L85 15.0002Z" fill="rgb(42,42,73)" fill-rule="nonzero" />
			<path id="Vector" d="M85 6.6665L85 14.9998L15 14.9998L15 6.6665C15 5.34042 15.5268 4.06865 16.4645 3.13097C17.4021 2.19329 18.6739 1.6665 20 1.6665L80 1.6665C81.3261 1.6665 82.5979 2.19329 83.5355 3.13097C84.4732 4.06865 85 5.34042 85 6.6665Z" fill="rgb(68,68,119)" fill-rule="nonzero" />
			<path id="Vector" d="M56.6667 50L43.3333 50L10 63.3333L10 93.3333C10 94.6594 10.5268 95.9312 11.4645 96.8689C12.4021 97.8065 13.6739 98.3333 15 98.3333L85 98.3333C86.3261 98.3333 87.5979 97.8065 88.5355 96.8689C89.4732 95.9312 90 94.6594 90 93.3333L90 63.3333L56.6667 50Z" fill="rgb(178,89,54)" fill-rule="nonzero" />
			<path id="Vector" d="M90 63.3333L90 93.3333C90 94.6594 89.4732 95.9312 88.5355 96.8689C87.5979 97.8065 86.3261 98.3333 85 98.3333L50 98.3333L50 50L56.6667 50L90 63.3333Z" fill="rgb(140,72,42)" fill-rule="nonzero" />
			<path id="Vector" d="M36.4999 63.3333L3.3849 63.3333C3.05536 63.3337 2.7327 63.2391 2.45558 63.0608C2.17846 62.8824 1.95866 62.628 1.82251 62.3279C1.68635 62.0278 1.63963 61.6948 1.68795 61.3688C1.73626 61.0428 1.87756 60.7377 2.0949 60.49L10.7616 50.585C10.9223 50.4015 11.1204 50.2543 11.3426 50.1534C11.5648 50.0526 11.8059 50.0002 12.0499 50L49.9999 50L39.5449 61.95C39.1648 62.3838 38.6967 62.7315 38.1716 62.9701C37.6465 63.2086 37.0766 63.3325 36.4999 63.3333Z" fill="rgb(206,118,69)" fill-rule="nonzero" />
			<path id="Vector" d="M63.5 63.3333L96.615 63.3333C96.9445 63.3337 97.2672 63.2391 97.5443 63.0608C97.8214 62.8824 98.0412 62.628 98.1774 62.3279C98.3135 62.0278 98.3603 61.6948 98.312 61.3688C98.2636 61.0428 98.1223 60.7377 97.905 60.49L89.2383 50.585C89.0776 50.4015 88.8795 50.2543 88.6573 50.1534C88.4351 50.0526 88.194 50.0002 87.95 50L50 50L60.455 61.95C60.8351 62.3838 61.3032 62.7315 61.8283 62.9701C62.3534 63.2086 62.9233 63.3325 63.5 63.3333Z" fill="rgb(206,118,69)" fill-rule="nonzero" />
			<path id="Vector" d="M23.3333 9.99984L21.6667 9.99984C21.2246 9.99984 20.8007 9.82424 20.4882 9.51168C20.1756 9.19912 20 8.7752 20 8.33317C20 7.89114 20.1756 7.46722 20.4882 7.15466C20.8007 6.8421 21.2246 6.6665 21.6667 6.6665L23.3333 6.6665C23.7754 6.6665 24.1993 6.8421 24.5118 7.15466C24.8244 7.46722 25 7.89114 25 8.33317C25 8.7752 24.8244 9.19912 24.5118 9.51168C24.1993 9.82424 23.7754 9.99984 23.3333 9.99984Z" fill="rgb(255,77,77)" fill-rule="nonzero" />
			<path id="Vector" d="M31.6663 9.99984L29.9997 9.99984C29.5576 9.99984 29.1337 9.82424 28.8212 9.51168C28.5086 9.19912 28.333 8.7752 28.333 8.33317C28.333 7.89114 28.5086 7.46722 28.8212 7.15466C29.1337 6.8421 29.5576 6.6665 29.9997 6.6665L31.6663 6.6665C32.1084 6.6665 32.5323 6.8421 32.8449 7.15466C33.1574 7.46722 33.333 7.89114 33.333 8.33317C33.333 8.7752 33.1574 9.19912 32.8449 9.51168C32.5323 9.82424 32.1084 9.99984 31.6663 9.99984Z" fill="rgb(247,187,38)" fill-rule="nonzero" />
			<path id="Vector" d="M40.0003 9.99984L38.3337 9.99984C37.8916 9.99984 37.4677 9.82424 37.1551 9.51168C36.8426 9.19912 36.667 8.7752 36.667 8.33317C36.667 7.89114 36.8426 7.46722 37.1551 7.15466C37.4677 6.8421 37.8916 6.6665 38.3337 6.6665L40.0003 6.6665C40.4424 6.6665 40.8663 6.8421 41.1788 7.15466C41.4914 7.46722 41.667 7.89114 41.667 8.33317C41.667 8.7752 41.4914 9.19912 41.1788 9.51168C40.8663 9.82424 40.4424 9.99984 40.0003 9.99984Z" fill="rgb(37,229,114)" fill-rule="nonzero" />
			<path id="Vector" d="M71.6667 9.99984L51.6667 9.99984C51.2246 9.99984 50.8007 9.82424 50.4882 9.51168C50.1756 9.19912 50 8.7752 50 8.33317C50 7.89114 50.1756 7.46722 50.4882 7.15466C50.8007 6.8421 51.2246 6.6665 51.6667 6.6665L71.6667 6.6665C72.1087 6.6665 72.5326 6.8421 72.8452 7.15466C73.1577 7.46722 73.3333 7.89114 73.3333 8.33317C73.3333 8.7752 73.1577 9.19912 72.8452 9.51168C72.5326 9.82424 72.1087 9.99984 71.6667 9.99984Z" fill="rgb(42,42,73)" fill-rule="nonzero" />
			<g id="Group">
				<path id="Vector" d="M40.0003 39.9998C39.6396 40.0006 39.2885 39.8835 39.0003 39.6665L32.3337 34.6665C32.1267 34.5113 31.9587 34.31 31.8429 34.0785C31.7272 33.8471 31.667 33.5919 31.667 33.3332C31.667 33.0744 31.7272 32.8192 31.8429 32.5878C31.9587 32.3564 32.1267 32.1551 32.3337 31.9998L39.0003 26.9998C39.1754 26.8685 39.3747 26.773 39.5867 26.7186C39.7987 26.6643 40.0194 26.6523 40.236 26.6833C40.4527 26.7142 40.6611 26.7875 40.8495 26.899C41.0378 27.0106 41.2023 27.1581 41.3337 27.3332C41.465 27.5083 41.5605 27.7075 41.6148 27.9195C41.6692 28.1316 41.6812 28.3522 41.6502 28.5689C41.6193 28.7855 41.546 28.994 41.4344 29.1823C41.3229 29.3707 41.1754 29.5352 41.0003 29.6665L36.112 33.3332L41.0003 36.9998C41.2802 37.2097 41.4869 37.5023 41.5912 37.8362C41.6955 38.1701 41.6921 38.5284 41.5815 38.8602C41.4708 39.1921 41.2586 39.4807 40.9748 39.6852C40.6911 39.8898 40.3501 39.9998 40.0003 39.9998Z" fill="rgb(37,229,114)" fill-rule="nonzero" />
				<path id="Vector" d="M59.9997 39.9998C59.6499 39.9998 59.3089 39.8898 59.0252 39.6852C58.7414 39.4807 58.5292 39.1921 58.4185 38.8602C58.3079 38.5284 58.3045 38.1701 58.4088 37.8362C58.5131 37.5023 58.7198 37.2097 58.9997 36.9998L63.888 33.3332L58.9997 29.6665C58.6461 29.4013 58.4123 29.0065 58.3498 28.5689C58.2873 28.1313 58.4011 27.6868 58.6663 27.3332C58.9316 26.9796 59.3264 26.7458 59.764 26.6833C60.2016 26.6207 60.6461 26.7346 60.9997 26.9998L67.6663 31.9998C67.8733 32.1551 68.0414 32.3564 68.1571 32.5878C68.2728 32.8192 68.333 33.0744 68.333 33.3332C68.333 33.5919 68.2728 33.8471 68.1571 34.0785C68.0414 34.31 67.8733 34.5113 67.6663 34.6665L60.9997 39.6665C60.7115 39.8835 60.3604 40.0006 59.9997 39.9998Z" fill="rgb(37,229,114)" fill-rule="nonzero" />
				<path id="Vector" d="M48.3333 41.6668C48.1968 41.6665 48.0608 41.6497 47.9283 41.6168C47.4996 41.5098 47.131 41.2368 46.9035 40.858C46.6759 40.4792 46.6081 40.0256 46.715 39.5968L50.0483 26.2635C50.1635 25.8437 50.4383 25.4855 50.8141 25.2657C51.1898 25.0459 51.6367 24.9818 52.0591 25.0872C52.4815 25.1926 52.8459 25.459 53.0744 25.8296C53.3028 26.2002 53.3772 26.6454 53.2817 27.0702L49.9483 40.4035C49.8584 40.7639 49.6507 41.084 49.3581 41.3129C49.0655 41.5418 48.7048 41.6664 48.3333 41.6668Z" fill="rgb(37,229,114)" fill-rule="nonzero" />
			</g>
		</g>
	</g>
</svg>
