<svg width="105" height="30" viewBox="0 0 105 30" fill="none" xmlns="http://www.w3.org/2000/svg">
<g clip-path="url(#clip0_131_1977)">
<path d="M28.0184 20.7058C25.0629 17.9572 20.1714 13.3117 18.7857 12.0491C17.5179 10.8937 17.0942 8.66885 18.3974 8.19985C22.0753 6.8765 22.7209 10.3319 25.8926 9.19039C31.8284 7.05422 28.6913 -1.63862 23.3797 0.272956C19.2347 1.7646 20.8938 5.87148 17.7331 7.00892C15.1497 7.93876 13.6083 7.15268 12.5445 6.3128C12.4809 6.26248 12.4188 6.21215 12.3586 6.16182C12.3586 6.16182 7.70981 1.93163 7.70981 1.93131C2.98215 -2.23597 -3.1068 4.109 1.83638 8.81292C4.76102 11.5961 10.7427 17.0226 12.1281 18.2852C13.3958 19.4406 13.8196 21.6655 12.5163 22.1345C8.83846 23.4578 8.19282 20.0024 5.02117 21.144C-0.914621 23.2801 2.22248 31.973 7.53403 30.0614C11.679 28.5697 10.02 24.4629 13.1806 23.3254C16.3416 22.188 17.9428 23.6186 19.0177 24.5742C19.0562 24.6085 22.684 28.0558 22.7228 28.0882C26.6428 31.3432 33.031 25.3675 28.0181 20.7055L28.0184 20.7058Z" fill="url(#paint0_linear_131_1977)"/>
</g>
<path d="M53.7596 23.6551C52.425 23.6551 51.2636 23.3865 50.2756 22.8491C49.2876 22.2945 48.525 21.5145 47.9876 20.5091C47.4503 19.5038 47.1816 18.3251 47.1816 16.9731C47.1816 15.6211 47.4503 14.4598 47.9876 13.4891C48.525 12.5011 49.2876 11.7471 50.2756 11.2271C51.2636 10.6898 52.425 10.4211 53.7596 10.4211C54.5743 10.4211 55.3803 10.5511 56.1776 10.8111C56.975 11.0711 57.6336 11.4351 58.1536 11.9031L57.1916 14.1651C56.741 13.7665 56.2296 13.4631 55.6576 13.2551C55.103 13.0471 54.5656 12.9431 54.0456 12.9431C52.919 12.9431 52.0436 13.2985 51.4196 14.0091C50.813 14.7025 50.5096 15.6991 50.5096 16.9991C50.5096 18.2818 50.813 19.2958 51.4196 20.0411C52.0436 20.7691 52.919 21.1331 54.0456 21.1331C54.5483 21.1331 55.0856 21.0291 55.6576 20.8211C56.2296 20.6131 56.741 20.3011 57.1916 19.8851L58.1536 22.1731C57.6336 22.6238 56.9663 22.9878 56.1516 23.2651C55.3543 23.5251 54.557 23.6551 53.7596 23.6551Z" fill="#333333"/>
<path d="M60.1473 23.3951V5.06513H63.3973V13.2291H63.0333C63.4146 12.3105 64.004 11.6171 64.8013 11.1491C65.616 10.6638 66.5346 10.4211 67.5573 10.4211C68.58 10.4211 69.4206 10.6118 70.0793 10.9931C70.738 11.3745 71.232 11.9551 71.5613 12.7351C71.8906 13.4978 72.0553 14.4685 72.0553 15.6471V23.3951H68.8053V15.8031C68.8053 15.1445 68.7186 14.6071 68.5453 14.1911C68.3893 13.7751 68.138 13.4718 67.7913 13.2811C67.462 13.0731 67.0373 12.9691 66.5173 12.9691C65.8933 12.9691 65.3473 13.1078 64.8793 13.3851C64.4113 13.6451 64.0473 14.0265 63.7873 14.5291C63.5273 15.0145 63.3973 15.5865 63.3973 16.2451V23.3951H60.1473Z" fill="#333333"/>
<path d="M75.1483 7.95113V4.77913H78.7883V7.95113H75.1483ZM75.3563 23.3951V10.6811H78.6063V23.3951H75.3563Z" fill="#333333"/>
<path d="M87.8073 23.6551C86.1086 23.6551 84.8433 23.2305 84.0112 22.3811C83.1792 21.5318 82.7632 20.2925 82.7632 18.6631V13.1251H80.3192V10.6811H82.7632V6.88512H86.0132V10.6811H89.8613V13.1251H86.0132V18.4811C86.0132 19.3131 86.1953 19.9371 86.5592 20.3531C86.9232 20.7691 87.5126 20.9771 88.3273 20.9771C88.5699 20.9771 88.8212 20.9511 89.0812 20.8991C89.3412 20.8298 89.6099 20.7605 89.8872 20.6911L90.3812 23.0831C90.0692 23.2565 89.6706 23.3951 89.1852 23.4991C88.7173 23.6031 88.2579 23.6551 87.8073 23.6551Z" fill="#333333"/>
<path d="M97.0494 23.6551C95.3508 23.6551 94.0854 23.2305 93.2534 22.3811C92.4214 21.5318 92.0054 20.2925 92.0054 18.6631V13.1251H89.5614V10.6811H92.0054V6.88512H95.2554V10.6811H99.1034V13.1251H95.2554V18.4811C95.2554 19.3131 95.4374 19.9371 95.8014 20.3531C96.1654 20.7691 96.7548 20.9771 97.5694 20.9771C97.8121 20.9771 98.0634 20.9511 98.3234 20.8991C98.5834 20.8298 98.8521 20.7605 99.1294 20.6911L99.6234 23.0831C99.3114 23.2565 98.9128 23.3951 98.4274 23.4991C97.9594 23.6031 97.5001 23.6551 97.0494 23.6551Z" fill="#333333"/>
<path d="M100.996 7.95113V4.77913H104.636V7.95113H100.996ZM101.204 23.3951V10.6811H104.454V23.3951H101.204Z" fill="#333333"/>
<defs>
<linearGradient id="paint0_linear_131_1977" x1="0" y1="15.1672" x2="29.8598" y2="15.1672" gradientUnits="userSpaceOnUse">
<stop stop-color="#FF323F"/>
<stop offset="1" stop-color="#FF37E4"/>
</linearGradient>
<clipPath id="clip0_131_1977">
<rect width="29.8603" height="30" fill="white"/>
</clipPath>
</defs>
</svg>
