<svg width="12" height="12" viewBox="0 0 12 12" fill="none" xmlns="http://www.w3.org/2000/svg">
<path d="M10.3748 6.83307H6.83307V10.3748C6.83307 10.8348 6.45984 11.2081 5.99979 11.2081C5.53973 11.2081 5.1665 10.8348 5.1665 10.3748V6.83307H1.62479C1.16473 6.83307 0.791504 6.45984 0.791504 5.99979C0.791504 5.53973 1.16473 5.1665 1.62479 5.1665H5.1665V1.62479C5.1665 1.16473 5.53973 0.791504 5.99979 0.791504C6.45984 0.791504 6.83307 1.16473 6.83307 1.62479V5.1665H10.3748C10.8348 5.1665 11.2081 5.53973 11.2081 5.99979C11.2081 6.45984 10.8348 6.83307 10.3748 6.83307Z" fill="#FAFAFA"/>
</svg>
