<svg viewBox="0 0 50 50" xmlns="http://www.w3.org/2000/svg" xmlns:xlink="http://www.w3.org/1999/xlink" width="50.000000" height="50.000000" fill="none" customFrame="#000000">
	<defs>
		<clipPath id="clipPath_3">
			<rect width="50.000000" height="50.000000" x="0.000000" y="0.000000" fill="rgb(255,255,255)" />
		</clipPath>
	</defs>
	<g id="advantages-security">
		<g id="Layer_1" clip-path="url(#clipPath_3)" customFrame="url(#clipPath_3)">
			<rect id="Layer_1" width="50.000000" height="50.000000" x="0.000000" y="0.000000" fill="rgb(255,255,255)" fill-opacity="0" />
			<path id="Vector" d="M33.3335 15L21.667 18.3335L21.667 27.5C21.667 35.3975 26.488 42.1525 33.3335 45C40.179 42.1525 45 35.3975 45 27.5L45 18.3335L33.3335 15ZM34.5835 28.8205L34.5835 34.167L32.0835 34.167L32.0835 28.8205C31.3395 28.388 30.8335 27.592 30.8335 26.667C30.8335 25.285 31.9515 24.167 33.3335 24.167C34.7155 24.167 35.8335 25.285 35.8335 26.667C35.8335 27.592 35.327 28.3875 34.5835 28.8205Z" fill="rgb(158.312,158.312,158.312)" fill-rule="nonzero" />
			<path id="Vector" d="M25 41.25L17.9865 41.25C17.553 40.507 16.756 40 15.833 40C14.453 40 13.333 41.12 13.333 42.5C13.333 43.881 14.453 45 15.833 45C16.756 45 17.5525 44.494 17.9865 43.75L25 43.75L25 41.25Z" fill="rgb(158.312,158.312,158.312)" fill-rule="nonzero" />
			<path id="Vector" d="M19.167 31.25L9.6535 31.25C9.2195 30.507 8.423 30 7.5 30C6.12 30 5 31.12 5 32.5C5 33.881 6.12 35 7.5 35C8.423 35 9.2195 34.494 9.6535 33.75L19.167 33.75L19.167 31.25Z" fill="rgb(158.312,158.312,158.312)" fill-rule="nonzero" />
			<path id="Vector" d="M8.75 26.25L8.75 17.987C9.494 17.554 10 16.7565 10 15.8335C10 14.453 8.88 13.3335 7.5 13.3335C6.12 13.3335 5 14.453 5 15.8335C5 16.7565 5.506 17.5535 6.25 17.987L6.25 28.75L19.167 28.75L19.167 26.25L8.75 26.25Z" fill="rgb(158.312,158.312,158.312)" fill-rule="nonzero" />
			<path id="Vector" d="M20.417 7.5C20.417 6.12 19.297 5 17.917 5C16.536 5 15.417 6.12 15.417 7.5C15.417 8.423 15.923 9.2205 16.667 9.6535L16.667 18.75L19.167 18.75L19.167 9.6535C19.91 9.2205 20.417 8.423 20.417 7.5Z" fill="rgb(158.312,158.312,158.312)" fill-rule="nonzero" />
			<path id="Vector" d="M30.8335 5C29.9105 5 29.113 5.5065 28.68 6.25L21.667 6.25L21.667 15L24.167 15L24.167 8.75L28.68 8.75C29.1125 9.494 29.9105 10 30.8335 10C32.2135 10 33.3335 8.8805 33.3335 7.5C33.3335 6.12 32.2135 5 30.8335 5Z" fill="rgb(158.312,158.312,158.312)" fill-rule="nonzero" />
			<path id="Vector" d="M11.9815 36.25L8.1395 40.093C7.9335 40.039 7.722 40 7.5 40C6.12 40 5 41.12 5 42.5C5 43.881 6.12 45 7.5 45C8.88 45 10 43.881 10 42.5C10 42.2775 9.962 42.0655 9.907 41.8605L13.0165 38.75L21.667 38.75L21.667 36.25L11.9815 36.25Z" fill="rgb(158.312,158.312,158.312)" fill-rule="nonzero" />
			<path id="Vector" d="M13.75 21.25L13.75 11.9825L9.907 8.1395C9.962 7.9345 10 7.723 10 7.5C10 6.12 8.88 5 7.5 5C6.12 5 5 6.12 5 7.5C5 8.8805 6.12 10 7.5 10C7.722 10 7.9345 9.961 8.1395 9.907L11.25 13.0175L11.25 23.75L19.167 23.75L19.167 21.25L13.75 21.25Z" fill="rgb(158.312,158.312,158.312)" fill-rule="nonzero" />
		</g>
	</g>
</svg>
